<!DOCTYPE svg PUBLIC "-//W3C//DTD SVG 20000303 Stylable//EN" "http://www.w3.org/TR/2000/03/WD-SVG-20000303/DTD/svg-20000303-stylable.dtd"[]>
<svg
  xmlns="http://www.w3.org/2000/svg"
  width="64px"
  height="64px"
  viewBox="0 0 999 999"
>
  <path
    style="fill: none; stroke: #4c4c4c; stroke-width: 0"
    d="M0,0 l999,0 0,999 -999,0 0,-999"
  />
  <path
    style="fill: #007e00; stroke: #4c4c4c; stroke-width: 2"
    d="M675,925 l-116,32 -120,0 -116,-32 -104,-60 -86,-84 -62,-106 -30,-116 0,-120 32,-118 60,-104 84,-84 106,-62 116,-30 120,0 118,30 104,62 84,84 62,104 30,118 0,120 -30,116 -62,106 -84,84 -106,60z"
  />
  <path
    style="fill: #001800"
    d="M667,907 l-110,30 -116,0 -110,-30 -100,-58 -82,-82 -58,-100 -30,-110 3,-116 27,-112 58,-98 82,-82 100,-58 110,-30 116,0 110,30 100,58 82,82 58,100 30,110 0,116 -30,110 -58,100 -82,82 -100,58z"
  />
  <path
    style="fill: #63b163"
    d="M768,824 l-173,-299 -122,69 173,299 122,-69z"
  />
  <path
    style="fill: #97cb97"
    d="M768,824 l-11,-6 -10,-5 -10,-7 -10,-6 -9,-7 -9,-7 -9,-7 -8,-8 -9,-8 -7,-8 -8,-8 -7,-9 -7,-9 -7,-9 -6,-10 -6,-10 -5,-10 -5,-10 -5,-10 -4,-10 -4,-11 -4,-11 -3,-11 -3,-11 -2,-11 -2,-11 -2,-12 -1,-11 -1,-11 0,-12 0,-12 1,-11 -8,4 -7,4 -8,5 -8,4 -7,4 -8,5 -7,4 -8,5 -8,4 -7,4 -8,5 -7,4 -8,4 -7,5 -8,4 -8,4 0,12 0,11 0,12 1,11 1,12 2,11 3,11 2,11 3,12 3,11 4,10 4,11 4,10 5,10 5,11 6,10 5,9 7,10 6,9 7,9 7,9 7,8 8,9 8,8 9,7 8,8 9,7 10,7 9,6 10,6 10,6 10,5 7,-4 8,-4 8,-5 7,-4 8,-4 8,-5 7,-4 8,-4 8,-5 7,-4 8,-5 7,-4 8,-4 7,-5 8,-4 8,-4z"
  />
  <path
    style="fill: none; stroke: #4c4c4c; stroke-width: 2"
    d="M768,824 l-173,-299 -122,69 0,12 0,11 0,12 1,11 1,12 2,11 3,11 2,11 3,12 3,11 4,10 4,11 4,10 5,10 5,11 6,10 5,9 7,10 6,9 7,9 7,9 7,8 8,9 8,8 9,7 8,8 9,7 10,7 9,6 10,6 10,6 10,5 122,-69"
  />
  <path style="fill: #63b163" d="M916,429 l-349,0 2,138 346,1 1,-139z" />
  <path
    style="fill: #97cb97"
    d="M916,429 l-10,6 -10,6 -11,6 -10,5 -11,5 -11,4 -10,4 -11,3 -12,3 -11,3 -11,2 -11,2 -12,2 -11,0 -11,1 -12,0 -11,0 -11,-1 -12,0 -11,-2 -11,-2 -12,-2 -11,-3 -11,-3 -11,-3 -11,-4 -10,-4 -11,-5 -10,-5 -11,-5 -10,-6 -10,-7 0,9 1,9 0,8 0,9 0,9 0,8 0,9 0,8 0,9 0,9 0,8 0,9 0,8 0,9 1,8 0,9 9,6 10,7 10,5 11,6 10,4 11,5 11,4 11,3 11,3 11,3 11,2 12,2 11,2 11,1 12,0 11,0 11,0 12,-1 11,0 11,-2 12,-2 11,-2 11,-3 11,-3 11,-3 11,-4 10,-4 11,-5 10,-5 10,-6 10,-6 10,-6 0,-8 0,-10 0,-8 0,-9 0,-8 0,-9 0,-9 0,-9 0,-8 0,-9 0,-8 0,-9 0,-9 0,-8 1,-9 0,-9z"
  />
  <path
    style="fill: none; stroke: #4c4c4c; stroke-width: 2"
    d="M916,429 l-349,0 2,138 9,6 10,7 10,5 11,6 10,4 11,5 11,4 11,3 11,3 11,3 11,2 12,2 11,2 11,1 12,0 11,0 11,0 12,-1 11,0 11,-2 12,-2 11,-2 11,-3 11,-3 11,-3 11,-4 10,-4 11,-5 10,-5 10,-6 10,-6 10,-6 1,-139"
  />
  <path
    style="fill: #63b163"
    d="M647,104 l-172,301 118,70 175,-302 -121,-69z"
  />
  <path
    style="fill: #97cb97"
    d="M647,104 l1,12 0,12 -1,11 -1,12 -1,11 -1,11 -2,12 -3,11 -3,11 -3,11 -4,11 -4,11 -4,10 -5,10 -5,11 -6,10 -5,9 -6,10 -7,9 -7,9 -7,9 -8,9 -8,8 -7,8 -9,8 -9,7 -9,7 -9,7 -9,7 -10,6 -10,6 -10,5 7,4 7,4 8,5 7,4 8,5 7,4 7,4 8,5 7,4 8,4 7,4 8,5 7,4 7,5 8,4 7,5 11,-6 10,-5 10,-7 9,-6 10,-7 9,-8 9,-7 8,-8 9,-8 7,-8 8,-9 7,-8 7,-10 7,-9 6,-10 6,-10 5,-9 5,-11 5,-10 5,-11 4,-10 4,-11 3,-11 3,-11 2,-11 2,-12 2,-11 1,-11 1,-12 0,-12 0,-11 0,-12 -8,-4 -7,-5 -8,-4 -7,-4 -8,-4 -8,-5 -7,-4 -7,-4 -8,-5 -8,-4 -7,-5 -7,-4 -8,-4 -8,-4 -7,-5 -8,-4z"
  />
  <path
    style="fill: none; stroke: #4c4c4c; stroke-width: 2"
    d="M647,104 l-172,301 118,70 11,-6 10,-5 10,-7 9,-6 10,-7 9,-8 9,-7 8,-8 9,-8 7,-8 8,-9 7,-8 7,-10 7,-9 6,-10 6,-10 5,-9 5,-11 5,-10 5,-11 4,-10 4,-11 3,-11 3,-11 2,-11 2,-12 2,-11 1,-11 1,-12 0,-12 0,-11 0,-12 -121,-69"
  />
  <path
    style="fill: #63b163"
    d="M231,174 l173,299 121,-70 -173,-299 -121,70z"
  />
  <path
    style="fill: #97cb97"
    d="M231,174 l10,6 10,5 10,7 10,6 9,7 9,7 9,7 8,8 9,8 7,8 8,8 7,9 7,9 7,9 6,10 6,10 5,10 5,10 5,10 4,10 4,11 4,11 3,11 3,11 3,11 1,11 2,12 1,11 1,11 0,12 0,12 0,11 7,-4 8,-4 7,-5 8,-4 7,-4 8,-5 8,-4 7,-5 8,-4 8,-5 7,-4 8,-5 7,-4 7,-4 8,-4 8,-5 0,-11 0,-12 0,-12 -1,-11 -1,-11 -2,-12 -3,-11 -2,-11 -3,-11 -3,-11 -4,-11 -4,-10 -4,-11 -5,-10 -5,-10 -6,-10 -5,-9 -7,-10 -6,-9 -7,-9 -7,-9 -7,-9 -8,-8 -8,-8 -9,-8 -8,-7 -9,-7 -10,-7 -9,-7 -10,-6 -10,-6 -10,-5 -7,5 -8,4 -8,4 -7,4 -8,5 -7,4 -8,5 -7,4 -8,5 -8,4 -7,5 -8,4 -8,4 -7,5 -8,4 -7,4z"
  />
  <path
    style="fill: none; stroke: #4c4c4c; stroke-width: 2"
    d="M231,174 l173,299 121,-70 0,-11 0,-12 0,-12 -1,-11 -1,-11 -2,-12 -3,-11 -2,-11 -3,-11 -3,-11 -4,-11 -4,-10 -4,-11 -5,-10 -5,-10 -6,-10 -5,-9 -7,-10 -6,-9 -7,-9 -7,-9 -7,-9 -8,-8 -8,-8 -9,-8 -8,-7 -9,-7 -10,-7 -9,-7 -10,-6 -10,-6 -10,-5 -121,70"
  />
  <path style="fill: #63b163" d="M82,569 l349,-1 -2,-137 -346,-1 -1,139z" />
  <path
    style="fill: #97cb97"
    d="M82,569 l10,-7 10,-6 11,-5 10,-5 11,-5 11,-4 10,-4 11,-3 12,-4 11,-2 11,-3 11,-1 12,-2 11,-1 12,0 11,-1 11,1 12,0 11,1 11,2 12,2 11,2 11,2 11,4 11,3 11,4 11,4 10,5 11,4 10,6 10,6 10,6 0,-8 0,-9 -1,-9 0,-8 0,-9 0,-9 0,-8 0,-9 0,-8 0,-9 0,-8 0,-9 0,-8 0,-9 -1,-9 0,-8 -9,-7 -10,-6 -10,-5 -11,-6 -10,-5 -11,-4 -11,-4 -11,-4 -11,-2 -11,-3 -11,-2 -11,-2 -12,-2 -11,-1 -11,0 -12,-1 -11,1 -11,1 -12,0 -11,2 -11,2 -11,2 -11,3 -12,3 -11,3 -10,4 -11,4 -11,5 -10,5 -10,6 -10,6 -10,6 0,8 0,9 0,9 0,9 0,8 0,9 0,9 0,8 0,9 0,8 0,9 0,9 0,9 0,8 -1,9 0,9z"
  />
  <path
    style="fill: none; stroke: #4c4c4c; stroke-width: 2"
    d="M82,569 l349,-1 -2,-137 -9,-7 -10,-6 -10,-5 -11,-6 -10,-5 -11,-4 -11,-4 -11,-4 -11,-2 -11,-3 -11,-2 -11,-2 -12,-2 -11,-1 -11,0 -12,-1 -11,1 -11,1 -12,0 -11,2 -11,2 -11,2 -11,3 -12,3 -11,3 -10,4 -11,4 -11,5 -10,5 -10,6 -10,6 -10,6 -1,139"
  />
  <path
    style="fill: #63b163"
    d="M351,893 l172,-300 -118,-70 -175,302 121,68z"
  />
  <path
    style="fill: #97cb97"
    d="M351,893 l0,-11 0,-12 0,-11 1,-12 1,-11 1,-12 2,-11 3,-11 3,-12 3,-10 4,-11 4,-11 4,-10 5,-11 5,-10 6,-10 5,-10 6,-9 7,-10 7,-9 7,-8 8,-9 8,-8 7,-8 9,-8 9,-8 9,-6 9,-7 9,-7 10,-6 10,-6 10,-5 -7,-4 -7,-5 -7,-4 -8,-4 -8,-5 -7,-4 -7,-5 -8,-4 -7,-4 -8,-4 -7,-5 -8,-4 -7,-4 -7,-5 -8,-4 -7,-5 -10,5 -11,6 -10,7 -9,6 -10,7 -9,7 -8,8 -9,7 -8,9 -8,8 -7,8 -8,9 -7,9 -6,10 -7,9 -5,10 -6,10 -5,10 -5,11 -4,10 -4,11 -4,11 -3,11 -3,11 -3,11 -2,12 -1,11 -2,11 -1,12 0,12 0,11 0,12 8,4 8,4 7,5 8,4 7,4 8,4 7,5 8,4 7,5 8,4 7,4 8,5 7,4 8,4 7,4 8,4z"
  />
  <path
    style="fill: none; stroke: #4c4c4c; stroke-width: 2"
    d="M351,893 l172,-300 -118,-70 -10,5 -11,6 -10,7 -9,6 -10,7 -9,7 -8,8 -9,7 -8,9 -8,8 -7,8 -8,9 -7,9 -6,10 -7,9 -5,10 -6,10 -5,10 -5,11 -4,10 -4,11 -4,11 -3,11 -3,11 -3,11 -2,12 -1,11 -2,11 -1,12 0,12 0,11 0,12 121,68"
  />
  <circle
    style="fill: #006500; stroke: #4c4c4c; stroke-width: 2"
    cx="499"
    cy="499"
    r="122"
  />
  <circle style="fill: #c9e4c9" cx="499" cy="499" r="105" />
  <circle style="fill: #007e00" cx="499" cy="499" r="36" />
</svg>
